<?xml version="1.0" standalone="no"?>
<!DOCTYPE svg PUBLIC "-//W3C//DTD SVG 20010904//EN"
 "http://www.w3.org/TR/2001/REC-SVG-20010904/DTD/svg10.dtd">
<svg version="1.0" xmlns="http://www.w3.org/2000/svg"
 width="300.000000pt" height="300.000000pt" viewBox="0 0 300.000000 300.000000"
 preserveAspectRatio="xMidYMid meet">
<metadata>
Created by potrace 1.10, written by Peter Selinger 2001-2011
</metadata>
<g transform="translate(0.000000,300.000000) scale(0.100000,-0.100000)"
fill="#000000" stroke="none">
<path d="M2380 2904 c-37 -12 -208 -15 -1011 -18 l-967 -3 -41 -24 c-38 -21
-71 -65 -71 -93 0 -6 8 4 17 22 9 19 32 44 52 58 l36 24 962 0 c705 0 981 3
1033 12 88 15 190 0 270 -40 80 -40 183 -144 221 -226 59 -125 58 -136 -10
-746 -34 -300 -64 -551 -66 -557 -2 -7 -1 -13 4 -13 5 0 14 -20 20 -44 6 -24
13 -51 17 -60 5 -13 0 -16 -24 -16 -28 0 -30 -3 -35 -42 -2 -24 9 -146 25
-273 34 -274 36 -358 9 -443 -51 -164 -194 -290 -365 -321 -81 -15 -1815 -15
-1906 0 -150 24 -282 125 -347 265 -51 111 -53 177 -15 474 17 129 28 249 26
265 -11 68 -15 75 -34 75 -23 0 -24 13 -9 74 9 36 3 86 -45 364 -31 177 -56
343 -56 370 0 62 23 148 56 215 24 46 143 177 162 177 4 0 6 -241 4 -536 -2
-395 0 -540 9 -550 16 -20 165 -20 176 0 4 8 7 283 5 610 -2 496 -5 596 -16
596 -19 0 -26 32 -26 116 0 88 15 107 81 102 29 -2 43 -7 41 -15 -1 -9 11 -13
35 -13 20 0 45 -7 55 -17 17 -15 19 -15 36 0 11 10 37 17 63 18 24 0 38 3 32
6 -32 12 -7 23 53 23 55 0 65 -3 60 -15 -4 -12 3 -15 31 -15 24 0 45 -8 59
-21 l23 -21 13 21 c10 16 23 21 55 21 29 0 42 4 40 13 -2 14 62 22 102 12 20
-5 22 -8 10 -16 -10 -6 -2 -9 27 -9 27 0 47 -6 58 -19 16 -17 15 -19 -21 -25
-29 -4 -44 -1 -65 14 -42 31 -84 26 -135 -16 -24 -19 -41 -40 -38 -44 3 -5 -9
-9 -27 -8 -18 1 -47 -6 -63 -15 -24 -13 -26 -16 -10 -17 11 0 36 5 55 10 19 6
49 12 65 15 44 6 246 55 258 62 6 3 26 7 45 9 19 2 37 6 41 10 3 4 -11 4 -31
0 -32 -6 -37 -4 -32 9 4 10 13 14 23 10 20 -8 1105 -7 1126 1 13 5 15 -76 17
-697 l3 -704 78 -3 c50 -2 84 1 93 9 12 10 14 123 14 718 0 449 -4 719 -10
743 -13 47 -46 88 -58 71 -6 -9 -21 -8 -66 6 -52 16 -57 20 -40 29 15 9 -2 11
-76 11 -84 0 -92 -1 -71 -13 l23 -13 -23 -6 c-13 -4 -462 -7 -997 -7 -1079 0
-1019 4 -1048 -65 -10 -25 -14 -81 -14 -210 0 -163 -1 -176 -17 -173 -16 3
-19 22 -23 183 l-6 180 -2 -158 -2 -157 -79 -78 c-84 -83 -129 -157 -151 -251
-15 -65 -9 -228 14 -341 8 -41 22 -118 30 -170 9 -52 23 -133 32 -180 14 -78
14 -143 -1 -195 -4 -14 2 -30 19 -48 15 -16 31 -48 36 -73 10 -42 5 -141 -7
-174 -4 -8 -7 -26 -8 -40 -2 -14 -10 -90 -20 -168 -23 -188 -15 -268 37 -372
31 -61 34 -64 106 -137 34 -35 69 -63 77 -63 8 0 15 -4 15 -9 0 -5 37 -20 83
-35 l82 -26 947 0 c668 0 962 3 995 11 49 12 124 39 133 49 3 3 17 11 31 18
71 37 149 138 188 242 26 73 36 206 21 300 -27 170 -51 384 -45 410 4 17 20
45 37 62 31 32 32 54 6 121 -10 26 -7 133 7 222 2 17 11 95 20 175 15 139 49
441 60 525 3 22 8 97 11 166 7 136 0 177 -54 284 -35 70 -157 187 -213 204
-24 7 -71 22 -104 32 -83 26 -151 30 -205 13z m234 -135 l26 -31 0 -694 0
-694 -25 0 -25 0 0 682 c0 620 -1 683 -17 700 -15 17 -62 18 -1073 18 -1014 0
-1058 -1 -1074 -18 -15 -17 -16 -76 -14 -700 l3 -682 -27 0 -28 0 0 694 0 694
26 31 26 31 1088 0 1088 0 26 -31z m-1916 -61 c-3 -7 -15 -13 -28 -13 -13 0
-25 6 -27 13 -3 8 6 12 27 12 21 0 30 -4 28 -12z m327 3 c3 -5 1 -12 -5 -16
-13 -8 -50 3 -50 16 0 12 47 12 55 0z m335 -1 c0 -19 -31 -23 -48 -6 -15 15
-14 16 16 16 18 0 32 -5 32 -10z m1187 -1157 c-2 -21 -4 -6 -4 32 0 39 2 55 4
38 2 -18 2 -50 0 -70z"/>
<path d="M480 2596 c0 -116 10 -121 84 -47 l58 59 -38 36 c-28 25 -48 36 -71
36 l-33 0 0 -84z m70 44 c27 -27 25 -41 -8 -74 -25 -23 -31 -25 -41 -12 -14
16 -11 87 4 98 16 12 23 10 45 -12z"/>
<path d="M758 2643 l-37 -38 40 -43 40 -42 47 11 c26 7 52 16 58 20 6 5 15 5
19 1 5 -4 5 -2 2 5 -4 6 0 19 9 28 16 15 14 19 -22 56 -32 33 -45 39 -79 39
-34 0 -47 -6 -77 -37z m124 -8 c25 -29 22 -41 -14 -56 -37 -15 -64 -15 -84 2
-20 17 -18 27 15 60 32 32 53 30 83 -6z"/>
<path d="M640 2525 c-21 -21 -44 -35 -59 -35 -15 -1 -39 -7 -56 -15 -30 -15
-29 -15 20 -9 104 12 275 64 213 64 -9 0 -20 -5 -24 -11 -4 -7 -16 -1 -33 15
l-27 26 -34 -35z"/>
<path d="M732 1957 c-9 -10 2 -27 46 -70 l58 -58 57 57 c31 31 57 60 57 64 0
15 -32 20 -120 20 -60 0 -91 -4 -98 -13z m178 -20 c0 -12 -60 -67 -73 -67 -16
0 -67 48 -67 62 0 5 32 8 70 8 39 0 70 -1 70 -3z"/>
<path d="M1073 1963 c-23 -9 -14 -28 42 -83 l55 -54 55 54 c58 57 65 74 39 84
-19 7 -173 7 -191 -1z m167 -31 c0 -4 -16 -23 -35 -42 -30 -29 -36 -32 -52
-19 -24 19 -52 52 -53 62 0 4 32 7 70 7 39 0 70 -4 70 -8z"/>
<path d="M1398 1956 c-15 -11 -11 -18 42 -71 l60 -59 59 58 c50 50 57 61 46
72 -18 19 -183 19 -207 0z m172 -24 c0 -4 -16 -23 -35 -42 -30 -29 -36 -32
-52 -19 -24 19 -52 52 -53 62 0 4 32 7 70 7 39 0 70 -4 70 -8z"/>
<path d="M1733 1963 c-23 -9 -14 -28 42 -83 l55 -54 55 54 c58 57 65 74 39 84
-19 7 -173 7 -191 -1z m167 -30 c-1 -10 -29 -43 -53 -62 -16 -13 -22 -10 -52
19 -19 19 -35 38 -35 42 0 4 32 8 70 8 39 0 70 -3 70 -7z"/>
<path d="M2060 1956 c-9 -12 -1 -25 44 -73 l56 -57 57 54 c32 30 59 56 62 57
2 2 -2 9 -9 18 -17 21 -192 22 -210 1z m173 -23 c6 -6 -61 -73 -73 -73 -7 0
-70 67 -70 74 0 8 135 8 143 -1z"/>
<path d="M558 1929 c-43 -19 -72 -49 -47 -49 6 0 6 -8 -1 -21 -7 -11 -10 -22
-8 -24 2 -1 32 24 68 56 68 62 65 72 -12 38z"/>
<path d="M2429 1890 c35 -33 66 -58 69 -55 3 3 -2 13 -11 23 -21 23 -22 33 -2
26 8 -4 15 -1 15 5 0 13 -92 61 -117 61 -12 0 3 -20 46 -60z"/>
<path d="M617 1833 l-59 -56 59 -58 58 -59 57 58 58 58 -58 56 -57 57 -58 -56z
m100 -15 c18 -18 33 -37 33 -43 0 -7 -16 -26 -35 -44 -41 -37 -57 -35 -98 14
l-27 33 35 36 c19 20 40 36 47 36 7 0 27 -14 45 -32z"/>
<path d="M947 1833 l-59 -56 59 -59 59 -58 56 58 56 59 -56 56 -57 56 -58 -56z
m100 -15 c18 -18 33 -36 33 -42 0 -14 -61 -76 -75 -76 -6 0 -28 17 -48 38
l-37 38 34 37 c18 20 40 37 47 37 7 0 28 -14 46 -32z"/>
<path d="M1276 1831 c-58 -58 -58 -59 -36 -71 19 -10 22 -10 17 3 -6 15 59 87
79 87 6 0 26 -13 44 -30 55 -49 58 -34 5 20 -27 28 -50 50 -50 50 0 0 -27 -27
-59 -59z"/>
<path d="M1615 1840 c-55 -55 -50 -67 8 -19 25 20 43 28 56 24 19 -6 64 -58
72 -84 4 -11 7 -11 17 1 9 12 0 25 -46 71 l-58 57 -49 -50z"/>
<path d="M1939 1833 l-55 -58 57 -56 58 -56 57 58 57 57 -56 56 c-31 31 -57
56 -59 56 -2 0 -29 -26 -59 -57z m115 -25 l30 -28 -39 -40 c-22 -22 -42 -40
-47 -40 -12 0 -78 61 -78 73 0 6 17 28 37 49 40 41 38 41 97 -14z"/>
<path d="M2272 1837 c-29 -29 -52 -55 -52 -58 0 -6 113 -121 114 -116 1 1 25
28 55 59 l54 56 -56 56 c-31 31 -57 56 -59 56 -2 0 -27 -24 -56 -53z m108 -22
c29 -30 32 -36 19 -52 -22 -30 -61 -63 -74 -63 -11 0 -34 23 -63 62 -11 14 -8
22 19 52 17 20 39 36 48 36 9 0 32 -16 51 -35z"/>
<path d="M1355 1754 c-277 -62 -473 -241 -561 -513 -21 -63 -25 -97 -26 -196
-1 -203 50 -347 174 -493 257 -300 716 -341 1023 -91 193 157 290 395 265 650
-29 301 -245 552 -545 634 -88 24 -245 28 -330 9z m343 -32 c2 -7 10 -12 17
-12 31 0 18 -27 -26 -55 -99 -62 -160 -108 -170 -127 -11 -20 -12 -19 -42 9
-49 45 -148 118 -186 137 l-33 18 30 18 c42 26 66 28 246 26 114 -1 161 -5
164 -14z m-328 -144 l99 -73 1 -72 0 -73 -92 -68 c-174 -127 -148 -116 -233
-97 -73 16 -75 17 -85 53 -5 20 -23 78 -40 127 l-30 90 55 52 c59 56 179 133
208 133 10 0 62 -33 117 -72z m462 31 c38 -22 97 -67 131 -98 l61 -58 -42
-118 c-23 -66 -47 -122 -53 -125 -6 -4 -41 -13 -79 -19 -79 -14 -56 -25 -228
102 l-93 68 3 71 3 72 100 73 c55 40 106 73 114 73 8 0 46 -18 83 -41z m-865
-162 c2 -28 -1 -33 -17 -32 -32 2 -35 14 -10 40 13 14 24 25 24 25 1 0 2 -15
3 -33z m1123 -21 c1 19 61 -89 65 -115 5 -46 26 -115 41 -139 11 -17 15 -54
15 -138 1 -64 -2 -118 -5 -122 -3 -3 -6 13 -6 35 0 35 -6 45 -48 84 -57 53
-114 97 -165 128 l-37 23 20 25 c10 14 31 64 45 111 14 48 30 98 36 112 10 24
11 24 25 5 8 -10 14 -15 14 -9z m-1154 -176 c-14 -44 -26 -88 -26 -98 0 -10
-18 -34 -41 -52 l-41 -33 7 44 c12 77 37 152 73 224 l36 70 9 -38 c8 -31 5
-53 -17 -117z m684 -2 c107 -78 157 -108 166 -100 4 4 1 -4 -8 -18 -21 -35
-98 -262 -98 -291 l0 -24 -175 0 -176 0 -15 55 c-30 106 -73 230 -90 255 -9
14 -13 25 -8 23 11 -3 91 38 99 52 3 5 30 25 59 45 30 19 71 51 91 71 l38 36
21 -25 c12 -14 55 -49 96 -79z m-623 15 c-6 41 6 33 32 -24 25 -56 24 -59 -34
-89 -42 -21 -55 -19 -35 5 11 13 10 14 -5 8 -15 -5 -17 -3 -11 13 4 10 13 41
19 68 l11 49 14 -29 13 -29 -4 28z m160 -143 l42 -10 47 -144 48 -144 -49 -75
c-57 -86 -58 -87 -212 -87 l-92 0 -40 83 c-33 67 -80 234 -69 242 221 166 217
163 251 154 17 -5 51 -13 74 -19z m908 -61 c85 -66 104 -85 100 -103 -20 -101
-32 -141 -63 -208 l-35 -78 -127 0 -127 0 -53 77 -53 78 47 142 c39 119 51
144 69 148 72 17 104 23 119 24 10 1 65 -36 123 -80z m-1209 -2 c5 5 -3 -6
-19 -23 -36 -40 -57 -40 -57 1 0 45 19 60 45 35 12 -11 26 -17 31 -13z m848
-349 l49 -71 -42 -128 -42 -128 -47 -8 c-58 -9 -195 -9 -243 0 -36 7 -37 8
-83 132 l-47 124 51 76 51 75 152 0 152 -1 49 -71z m244 -73 c136 0 151 -5
117 -39 -8 -8 -15 -19 -15 -25 0 -6 -7 -11 -16 -11 -8 0 -12 -4 -9 -10 3 -5
-1 -10 -9 -10 -9 0 -16 -7 -16 -16 0 -8 -4 -12 -10 -9 -5 3 -10 -1 -10 -9 0
-9 -7 -16 -16 -16 -8 0 -12 -4 -9 -10 3 -5 -5 -12 -19 -16 -13 -3 -27 -12 -30
-20 -12 -31 -254 -129 -273 -110 -3 3 3 6 15 6 12 0 30 13 43 31 25 35 89 220
89 257 0 20 3 23 18 16 9 -5 77 -9 150 -9z m-971 -15 c21 0 22 -2 13 -21 -7
-11 -9 -27 -6 -35 7 -19 -37 13 -53 39 -14 22 -4 44 12 28 6 -6 22 -11 34 -11z
m243 5 c0 -8 7 -36 16 -62 32 -92 43 -133 36 -133 -4 0 -14 15 -21 33 -10 24
-15 28 -18 15 -4 -16 -7 -15 -26 5 -12 12 -43 41 -69 65 -26 23 -43 42 -37 42
8 0 7 5 -1 15 -7 8 -9 15 -4 16 64 6 88 10 92 14 11 11 32 4 32 -10z m-120
-81 c25 -25 72 -64 105 -87 32 -22 54 -42 48 -44 -19 -7 -143 70 -203 126
l-55 50 30 1 c24 0 41 -11 75 -46z m216 -181 c-3 -8 7 -16 27 -22 18 -5 25
-10 16 -10 -8 -1 -39 6 -67 14 -55 17 -67 37 -34 61 14 11 21 9 40 -9 12 -11
20 -27 18 -34z"/>
<path d="M1478 843 c23 -2 61 -2 85 0 23 2 4 4 -43 4 -47 0 -66 -2 -42 -4z"/>
<path d="M778 1670 l-56 -58 57 -56 57 -57 58 58 57 57 -58 57 -58 57 -57 -58z
m105 -16 c31 -31 35 -39 25 -53 -25 -34 -58 -61 -73 -61 -18 0 -75 58 -75 76
0 12 65 74 78 74 4 0 24 -16 45 -36z"/>
<path d="M2106 1671 l-57 -57 58 -58 57 -57 57 58 57 58 -58 56 -58 57 -56
-57z m98 -13 c20 -17 36 -37 36 -43 0 -6 -18 -28 -40 -50 l-39 -38 -42 42 -41
43 38 39 c21 21 41 39 45 39 4 0 23 -14 43 -32z"/>
<path d="M509 1703 c5 -10 23 -31 40 -47 17 -17 31 -37 31 -45 0 -8 -19 -34
-42 -58 -62 -63 -41 -61 27 3 l59 55 -54 54 c-56 55 -78 69 -61 38z"/>
<path d="M2431 1666 l-52 -53 58 -56 c68 -65 84 -67 24 -2 -47 51 -50 64 -20
91 29 26 62 74 52 74 -5 0 -32 -24 -62 -54z"/>
<path d="M620 1506 c-41 -42 -62 -56 -85 -57 -29 -1 -29 -1 -5 -8 30 -9 54 1
100 46 19 18 39 33 44 33 6 0 28 -18 51 -39 41 -40 98 -61 110 -42 4 7 -6 11
-26 11 -26 0 -41 10 -83 56 l-51 55 -55 -55z"/>
<path d="M2282 1506 c-45 -47 -59 -56 -88 -56 -21 0 -33 -4 -29 -10 13 -21 80
1 120 41 23 21 45 39 51 39 6 0 23 -14 40 -31 39 -41 74 -58 99 -48 17 6 15 8
-10 8 -23 1 -41 14 -80 57 l-50 56 -53 -56z"/>
<path d="M2724 1408 c1 -96 3 -108 19 -108 14 0 16 5 11 26 -4 15 -12 63 -19
108 l-12 81 1 -107z"/>
<path d="M266 1438 c-4 -29 -9 -72 -12 -95 -5 -33 -3 -43 7 -43 11 0 15 23 16
95 2 52 1 95 -1 95 -2 0 -6 -24 -10 -52z"/>
<path d="M507 1323 c-19 -19 5 -23 137 -23 132 0 181 8 140 24 -21 8 -269 8
-277 -1z"/>
<path d="M2212 1323 c-37 -15 15 -23 144 -23 131 0 171 7 128 24 -19 7 -253 7
-272 -1z"/>
<path d="M232 1164 c3 -14 31 -15 236 -14 234 1 292 5 292 21 0 5 -120 9 -266
9 -236 0 -265 -2 -262 -16z"/>
<path d="M2248 1168 c10 -10 77 -13 264 -13 192 0 252 3 255 13 4 9 -53 12
-263 12 -214 0 -266 -3 -256 -12z"/>
</g>
</svg>
